<?xml version="1.0" standalone="no"?>
<!DOCTYPE svg PUBLIC "-//W3C//DTD SVG 20010904//EN"
 "http://www.w3.org/TR/2001/REC-SVG-20010904/DTD/svg10.dtd">
<svg version="1.0" xmlns="http://www.w3.org/2000/svg"
 width="512.000000pt" height="512.000000pt" viewBox="0 0 512.000000 512.000000"
 preserveAspectRatio="xMidYMid meet">
<metadata>
Created by potrace 1.14, written by Peter Selinger 2001-2017
</metadata>
<g transform="translate(0.000000,512.000000) scale(0.100000,-0.100000)"
fill="#000000" stroke="none">
<path d="M3535 5071 c-71 -27 -226 -84 -342 -126 -232 -84 -205 -80 -373 -58
-70 9 -427 10 -495 2 -192 -23 -194 -24 -330 -56 -110 -26 -287 -83 -378 -122
-26 -11 -48 -20 -50 -19 -9 5 -262 -137 -352 -197 -160 -106 -264 -192 -405
-335 -119 -121 -129 -129 -200 -154 -199 -70 -223 -91 -193 -165 8 -18 13 -34
11 -36 -2 -1 -18 -10 -37 -20 -135 -69 -195 -267 -122 -403 10 -19 5 -44 -34
-163 -46 -140 -83 -296 -100 -419 -27 -191 -27 -556 -1 -696 2 -11 7 -40 10
-66 8 -56 38 -186 67 -283 130 -442 413 -879 754 -1163 44 -37 85 -71 91 -77
6 -5 22 -17 34 -25 12 -8 42 -30 66 -48 23 -17 47 -32 53 -32 5 0 11 -4 13 -8
5 -12 212 -130 287 -164 36 -17 86 -39 111 -50 46 -21 288 -103 331 -112 13
-3 42 -10 64 -15 22 -6 56 -13 75 -16 19 -3 60 -10 90 -15 306 -51 673 -34
993 46 308 77 630 236 897 443 95 73 282 256 380 371 127 149 294 429 377 630
52 127 119 343 128 416 2 11 8 45 14 76 28 132 39 279 36 478 -1 113 -5 214
-8 226 -3 12 -8 45 -12 75 -14 118 -52 285 -92 404 -15 44 -28 82 -28 85 -11
43 -81 201 -133 300 -103 198 -244 395 -399 561 -155 166 -417 363 -633 478
-105 56 -106 49 14 86 76 24 120 54 124 85 1 14 -11 63 -28 110 -18 47 -38
105 -47 130 -33 102 -55 106 -228 41z"/>
</g>
</svg>
